<svg viewBox="0 0 216 16" preserveAspectRatio="none" fill="none" xmlns="http://www.w3.org/2000/svg">
<path opacity="0.7" d="M56.6141 15.7669L56.777 15.234C59.359 15.2273 57.5264 15.8401 59.9211 15.7136C60.8578 14.9609 63.8878 15.7935 64.7186 15.3938C64.7023 15.4538 65.8671 15.4738 65.7938 15.7136C66.1522 15.3072 66.9993 15.6203 67.7324 15.5137C68.0012 15.4005 67.5369 15.3938 67.3333 15.2673L69.0193 15.1207C69.679 15.254 69.842 15.4938 69.1252 15.5404C73.5399 15.6869 94.7501 16.0799 99.5069 15.8734C98.896 15.567 97.4299 15.7735 96.8679 15.2873C98.1222 15.0142 98.7168 15.3805 99.2707 15.0941C99.7512 15.8135 102.032 15.2673 102.985 16L103.343 15.5937L103.97 15.8468C109.501 15.4205 105.233 15.6403 110.136 15.7336C112.971 15.6736 114.323 15.1007 115.903 15.3139C115.667 15.3072 115.04 15.0608 115.781 14.9542C115.903 15.3139 117.736 14.6944 118.094 15.0608C118.811 15.0142 121.149 15.0608 120.359 14.5679C120.758 14.8143 122.835 14.9142 121.597 15.1274C122.297 15.1407 122.981 15.214 123.486 15.1074L122.582 14.9675C124.953 14.8943 126.248 15.2739 127.795 14.8343L126.916 14.6411C128.333 14.6078 129.522 14.5745 130.076 15.0608L128.618 15.2073C130.972 15.194 132.389 15.1607 134.352 14.9009L133.652 14.8876C136.152 14.4013 149.209 14.0017 151.514 13.3955L150.455 13.0158L152.435 12.6961C152.198 12.6894 151.482 13.9217 151.286 13.7952C155.53 13.7619 177.579 13.4688 181.497 13.7219C183.077 13.9284 181.782 14.3214 181.766 14.3813C183.688 14.2415 182.596 13.9817 184.234 14.015C184.682 14.0816 184.144 14.3081 183.891 14.3614C184.608 14.3147 185.268 14.448 185.325 14.2681C184.429 14.1282 184.812 13.6619 184.429 13.3622L186.531 13.4022L186.441 13.6953C186.913 13.7019 187.63 12.8893 189.699 13.0491C193.185 13.1757 196.973 13.0758 200.475 13.1424C200.418 13.3222 199.685 13.4221 198.944 13.5287C199.416 13.5354 200.133 13.4954 200.565 13.622C199.718 13.3089 202.039 13.4155 201.371 13.2823C203.937 12.5629 207.26 13.2223 209.524 12.7294C209.644 12.33 210.377 9.81232 211.699 6.73684C212.538 4.78551 214.066 2.4504 214.379 0.799334C215.08 0.812656 215.78 0.825978 216 0.892589C215.821 0.712739 214.436 0.626145 213.703 0.726062L213.573 1.13905C211.878 1.2856 213.174 0.892589 211.528 0.919234C211.439 0.579517 212.962 0.506245 214.298 0.472939C213.092 0.432972 211.895 0.186511 211.406 0.559534C210.274 0.41965 211.528 0.146545 210.168 0C209.199 0.0999167 207.92 0.432973 206.804 0.233139L206.82 0.173189C204.108 -0.173189 202.674 0.686095 200.19 0.339717L200.459 0.226478C199.579 0.0333056 197.861 0.293089 196.28 0.0865945C196.728 0.153206 197.119 0.399667 196.174 0.439634C194.358 0.226478 193.12 0.439634 191.792 0.173189L190.522 0.506245C184.193 0.439634 159.211 0.912573 152.858 0.965862L153.111 0.912573C143.426 1.0791 123.56 1.05246 113.549 1.51207C112.002 1.18568 109.868 1.26561 108.255 1.17236C109.151 1.30558 108.841 1.53872 108.141 1.5254C103.221 1.48543 107.807 1.75187 102.83 1.89176C97.104 2.19817 75.1771 1.85179 70.0945 1.57202C67.3659 2.05162 63.9529 1.69192 61.2813 1.99167L61.5502 1.87843C58.6749 2.05828 42.4088 1.61199 39.0693 1.78518L39.5173 1.85179C36.6013 2.15154 37.0004 1.62531 34.7034 1.45878C35.0048 1.99833 32.5124 2.30475 31.5594 2.34471L31.592 2.22481C30.1584 2.31807 26.9085 2.78435 24.5382 2.85762L24.6278 2.56453C22.6485 2.88426 18.9343 2.75104 17.517 2.78435C14.2671 2.66445 9.25776 2.14488 4.90821 2.53788L2.09805 1.69858L1.69079 1.78518C1.69079 1.78518 -2.82981 11.95 2.91257 14.1149L2.82299 14.408L3.95518 14.368C5.31544 14.5146 5.94268 14.1682 5.85309 14.4679L3.9878 14.4346C5.3562 14.5212 4.4032 14.6744 3.88191 14.841C4.45207 14.8676 5.0059 14.9076 5.46203 14.9942C5.73082 14.8809 5.26655 14.8743 5.05477 14.8077C5.78784 14.7011 6.81415 14.428 7.71012 14.5612C9.1111 14.5878 7.79972 15.0408 9.43691 15.0674C18.0546 15.2939 26.4034 15.6403 35.1188 15.5737C35.3143 15.6936 35.0781 15.6936 34.8256 15.7469C37.4484 15.6203 39.7861 15.6669 42.1726 15.5337C42.8324 15.6669 43.0198 15.8468 43.2152 15.9667C42.808 15.7269 56.3942 15.7002 56.6141 15.7669Z" fill="#B44C61"/>
</svg>
